<?xml version="1.0" standalone="no"?>
<!DOCTYPE svg PUBLIC "-//W3C//DTD SVG 20010904//EN"
 "http://www.w3.org/TR/2001/REC-SVG-20010904/DTD/svg10.dtd">
<svg version="1.0" xmlns="http://www.w3.org/2000/svg"
 width="512.000000pt" height="512.000000pt" viewBox="0 0 512.000000 512.000000"
 preserveAspectRatio="xMidYMid meet">
<metadata>
Created by potrace 1.14, written by Peter Selinger 2001-2017
</metadata>
<g transform="translate(0.000000,512.000000) scale(0.100000,-0.100000)"
fill="#000000" stroke="none">
<path d="M2232 5106 c-32 -6 -57 -18 -63 -29 -15 -26 8 -30 72 -14 102 27 153
2 221 -106 24 -37 67 -103 96 -145 29 -42 64 -102 79 -132 l27 -55 1 -280 c1
-154 5 -301 9 -326 10 -59 -9 -70 -51 -30 -41 39 -238 133 -378 179 -103 35
-179 52 -375 88 -78 13 -444 12 -525 -2 -184 -33 -324 -78 -490 -159 -367
-180 -633 -441 -797 -780 l-53 -110 -3 -804 -2 -804 46 -91 c110 -217 224
-340 579 -626 251 -203 492 -399 559 -456 49 -40 230 -132 351 -177 170 -64
620 -206 685 -217 112 -18 211 -25 335 -24 105 1 145 7 320 48 417 97 691 211
990 409 374 250 509 422 550 702 3 22 12 76 21 120 8 44 17 96 20 115 3 19 7
40 9 47 18 54 22 221 12 523 -12 342 -45 520 -137 735 -91 213 -159 307 -400
555 -144 148 -180 187 -180 193 0 3 7 12 15 21 12 11 27 14 58 9 68 -11 267
-7 332 6 145 29 266 80 365 154 188 140 356 308 473 474 83 119 114 191 112
263 -3 106 -5 122 -17 118 -9 -3 -14 -28 -15 -70 -2 -102 -16 -122 -222 -319
-121 -116 -238 -197 -322 -226 -55 -18 -182 -24 -264 -11 -65 11 -186 21 -245
22 -64 0 -188 -12 -201 -20 -23 -14 -17 29 14 87 18 35 46 96 62 134 16 39 41
91 56 117 64 110 39 176 -76 197 -62 12 -93 1 -175 -62 -126 -96 -242 -237
-367 -444 -35 -59 -68 -112 -74 -120 -33 -39 -80 10 -112 118 -29 98 -35 127
-43 229 -3 41 -9 91 -14 110 -5 19 -11 46 -14 60 -9 48 -45 140 -85 217 -59
113 -142 218 -302 385 -169 177 -220 209 -341 213 -40 2 -97 -2 -126 -9z m600
-493 c76 -58 131 -135 160 -223 19 -59 21 -88 22 -310 1 -238 2 -246 25 -294
14 -27 47 -73 74 -102 84 -89 83 -87 63 -163 -9 -36 -18 -82 -18 -101 0 -19
-8 -43 -16 -53 -23 -26 -126 -54 -359 -97 -319 -60 -446 -48 -703 64 -105 46
-170 60 -255 53 -116 -9 -261 -77 -350 -164 -73 -72 -84 -58 -49 63 51 178
105 263 176 283 88 24 223 30 373 17 234 -20 374 -45 515 -91 200 -65 315 -82
384 -58 32 11 45 11 80 -1 42 -15 72 -8 82 18 3 7 -13 51 -35 97 -42 90 -194
493 -206 546 -3 18 -8 106 -10 197 -4 155 -13 238 -35 315 -18 65 -1 66 82 4z
m1097 -267 c7 -8 11 -27 9 -43 -4 -38 -31 -37 -39 2 -9 50 6 70 30 41z m-125
-111 c16 -16 2 -63 -84 -280 -83 -212 -265 -533 -322 -569 -12 -7 -32 -6 -70
4 -29 7 -60 14 -68 15 -20 1 -40 14 -40 25 0 4 11 11 24 14 37 9 216 193 250
254 15 30 38 95 51 146 25 102 42 140 117 263 50 83 100 143 117 143 5 0 16
-7 25 -15z m-1939 -59 c33 -4 68 -10 77 -12 10 -3 30 -7 45 -10 89 -15 261
-70 358 -114 96 -43 232 -99 257 -105 58 -15 102 -69 177 -217 39 -79 71 -151
71 -161 0 -15 -6 -17 -42 -12 -48 7 -113 24 -208 54 -36 11 -103 29 -150 41
-90 23 -90 23 -160 36 -25 4 -47 8 -50 9 -3 1 -32 5 -65 9 -33 5 -71 11 -85
13 -14 2 -99 6 -190 8 -176 5 -228 -3 -319 -47 -168 -81 -306 -403 -305 -710
1 -38 -3 -49 -19 -54 -39 -12 -132 -127 -206 -257 -105 -182 -271 -596 -271
-676 0 -11 8 -24 18 -29 17 -10 61 1 63 15 8 89 101 347 186 518 60 120 143
243 195 290 l42 38 19 -44 c19 -41 20 -67 20 -344 0 -288 -10 -733 -18 -785
-2 -14 -6 -72 -10 -130 -6 -104 -8 -125 -20 -249 -6 -57 -4 -66 17 -88 26 -28
77 -57 85 -49 3 3 7 106 8 228 1 123 5 234 8 248 3 14 8 56 12 95 13 135 90
389 158 517 42 80 105 155 118 141 9 -9 17 -59 25 -151 3 -37 7 -78 9 -91 7
-44 18 -346 19 -544 1 -192 2 -199 24 -224 12 -14 25 -24 27 -21 3 2 7 31 10
64 22 233 86 421 195 577 75 107 97 129 120 122 24 -7 35 -27 44 -75 3 -19 8
-44 10 -55 9 -46 20 -182 31 -390 4 -60 9 -123 11 -140 6 -37 59 -84 96 -85
l27 0 -16 37 c-15 38 -36 162 -48 288 -3 39 -8 86 -10 105 -2 19 -7 68 -10
109 -10 149 -33 269 -60 322 -54 103 -154 29 -305 -225 -61 -102 -64 -101 -75
35 -4 46 -8 104 -10 129 -2 25 -6 86 -10 135 -14 213 -38 269 -108 251 -63
-15 -153 -147 -216 -316 -21 -58 -41 -112 -44 -120 -6 -15 -4 36 10 255 4 66
7 188 7 270 -1 126 -4 162 -24 227 l-23 77 27 45 c22 38 133 163 216 243 68
66 138 69 315 13 249 -79 376 -100 575 -96 192 5 351 43 514 122 39 19 78 32
87 29 10 -3 22 -19 28 -35 5 -17 32 -51 59 -77 146 -141 228 -293 324 -603 37
-119 128 -428 134 -455 2 -11 7 -31 10 -45 3 -14 8 -66 10 -116 4 -106 -14
-182 -77 -323 -21 -49 -39 -102 -39 -117 l1 -29 34 39 c40 46 127 211 178 341
53 134 78 240 92 386 2 31 12 89 20 128 44 210 5 383 -165 721 -79 157 -113
247 -105 277 3 13 9 23 14 23 5 0 33 -28 63 -62 29 -35 79 -90 111 -123 149
-157 268 -364 352 -616 43 -131 88 -307 100 -399 3 -25 8 -56 10 -70 8 -41 14
-82 20 -135 4 -27 18 -108 31 -178 15 -74 23 -145 20 -170 -7 -56 -99 -428
-127 -508 -57 -170 -161 -330 -301 -465 -256 -248 -729 -483 -1068 -531 -68
-10 -307 -10 -376 -1 -249 34 -496 136 -770 319 -56 37 -205 129 -330 205
-126 75 -257 156 -292 180 -35 24 -65 44 -67 44 -4 0 -281 210 -355 269 -166
133 -217 213 -329 513 -65 175 -99 319 -106 449 -3 57 -8 131 -11 164 -3 33
-7 76 -9 96 -3 40 -14 146 -20 195 -22 189 -24 308 -5 397 6 29 13 67 16 83
78 438 328 769 729 969 194 96 368 149 560 171 33 3 61 7 63 9 5 5 258 -3 317
-9z m2844 -313 c-40 -60 -105 -122 -184 -178 -67 -47 -157 -98 -195 -109 -143
-42 -161 -45 -359 -43 -189 1 -198 0 -246 -23 -57 -28 -65 -30 -82 -17 -10 7
-7 19 13 51 14 22 45 80 69 127 43 85 45 87 92 99 63 17 183 21 258 9 80 -13
217 -12 285 1 84 16 196 56 290 103 47 24 86 40 88 35 2 -4 -11 -29 -29 -55z
m-1184 -533 c8 -16 15 -31 14 -32 -10 -15 28 -114 100 -263 103 -210 114 -234
145 -317 46 -123 57 -287 29 -433 -7 -38 -15 -81 -18 -93 -5 -29 -23 -52 -41
-52 -14 0 -22 33 -28 120 -6 79 -15 114 -52 211 -19 48 -45 135 -59 195 -51
215 -99 317 -198 419 -96 98 -199 255 -168 255 5 0 30 -21 57 -46 66 -61 81
-69 109 -54 27 15 38 46 24 71 -7 14 -4 21 13 33 34 24 56 19 73 -14z m-602
-85 c-34 -24 -75 -37 -125 -40 -45 -3 -61 6 -38 20 14 9 129 33 160 34 24 1
24 1 3 -14z"/>
<path d="M2008 2704 c-11 -65 8 -69 293 -73 45 -1 66 -5 66 -13 0 -7 3 -35 7
-63 9 -75 15 -133 21 -200 3 -33 8 -76 10 -95 2 -19 6 -57 10 -85 3 -27 8 -67
11 -87 6 -37 5 -37 -42 -51 -26 -8 -49 -18 -51 -23 -1 -5 27 -40 63 -79 67
-71 97 -116 92 -138 -2 -10 9 -147 17 -217 2 -14 6 -52 10 -85 3 -33 10 -89
15 -125 9 -66 22 -201 24 -255 1 -22 7 -31 26 -36 36 -10 88 -10 94 -1 3 5 -1
35 -8 68 -8 32 -17 84 -21 114 -4 30 -9 64 -10 75 -2 11 -7 40 -10 65 -3 25
-8 52 -10 60 -2 8 -6 38 -10 65 -8 66 -24 173 -31 209 l-6 28 63 -43 c35 -24
105 -73 154 -109 160 -118 308 -200 441 -244 121 -40 270 -44 282 -8 2 8 -8
12 -30 12 -66 0 -265 77 -382 147 -232 140 -481 348 -515 432 -16 36 -15 38
19 45 63 11 132 29 210 52 373 111 522 223 471 356 -15 40 -82 97 -156 133
-72 35 -227 89 -281 98 -16 3 -63 12 -104 20 -83 17 -112 21 -290 42 -90 11
-440 18 -442 9z m586 -109 c153 -30 368 -96 459 -141 214 -106 165 -176 -213
-308 -86 -30 -302 -87 -308 -82 -9 10 -27 185 -48 460 l-6 89 43 -6 c24 -4 57
-9 73 -12z"/>
</g>
</svg>
